<?xml version="1.0" encoding="utf-8"?>
<!-- Generator: Adobe Illustrator 24.1.2, SVG Export Plug-In . SVG Version: 6.00 Build 0)  -->
<svg version="1.1" id="svg" xmlns="http://www.w3.org/2000/svg" xmlns:xlink="http://www.w3.org/1999/xlink" x="0px" y="0px"
	 viewBox="0 0 1527.7 971.4" preserveAspectRatio="none" style="enable-background:new 0 0 1527.7 971.4;" xml:space="preserve">
<style type="text/css">
	.st0{fill:none;}
	.st1{fill:#60E2E0;stroke:#60E2E0;}
	.st2{fill:#53DBDE;stroke:#53DBDE;}
	.st3{fill:#46D4DC;stroke:#46D4DC;}
	.st4{fill:#38CDDB;stroke:#38CDDB;}
	.st5{fill:#28C6D9;stroke:#28C6D9;}
	.st6{fill:#14BFD7;stroke:#14BFD7;}
	.st7{fill:#00B7D4;stroke:#00B7D4;}
	.st8{fill:#00B0D2;stroke:#00B0D2;}
	.st9{fill:#00A9CF;stroke:#00A9CF;}
	.st10{fill:#00A1CC;stroke:#00A1CC;}
	.st11{fill:#009AC8;stroke:#009AC8;}
	.st12{fill:#0093C4;stroke:#0093C4;}
	.st13{fill:#008BC0;stroke:#008BC0;}
	.st14{fill:#0084BC;stroke:#0084BC;}
	.st15{fill:#007CB7;stroke:#007CB7;}
	.st16{fill:#0075B1;stroke:#0075B1;}
	.st17{fill:#036EAC;stroke:#036EAC;}
	.st18{fill:#1566A6;stroke:#1566A6;}
	.st19{fill:#1F5F9F;stroke:#1F5F9F;}
	.st20{fill:#275798;stroke:#275798;}
	.st21{fill:#2D5091;stroke:#2D5091;}
	.st22{fill:#33488A;stroke:#33488A;}
	.st23{fill:#374182;stroke:#374182;}
	.st24{fill:#3A397A;stroke:#3A397A;}
	.st25{fill:#3C3171;stroke:#3C3171;}
	.st26{fill:#3E2968;stroke:#3E2968;}
	.st27{fill:#3F2160;stroke:#3F2160;}
	.st28{fill:#3F1957;stroke:#3F1957;}
	.st29{fill:#3F0F4D;stroke:#3F0F4D;}
	.st30{fill:#3E0444;stroke:#3E0444;}
</style>
<path class="st0" d="z"/>
<path class="st1" d="M-226.4,986.3v-1002c12.9,0,77.1-80,90-80c20.9,0,125.1-57,146-57c16.1,0,96.9,221,113,221
	c21.9,0,131.1,55,153,55c13.3,0,79.7-220,93-220c23.9,0,143.1,217,167,217c18,0,108-250,126-250c16.6,0,99.4,236,116,236
	c18.4,0,110.6-35,129-35c21.3,0,127.7-200,149-200c22.3,0,133.7,3,156,3c14.6,0,87.4,221,102,221l231-111v1002H-226.4z"/>
<path class="st2" d="M-226.4,986.3l9-977c21.1,0,126.9,137,148,137c23,0,138-277,161-277c23.9,0,143.1,24,167,24c19,0,114,26,133,26
	c12.6,0,75.4,208,88,208c23.3,0,139.7-44,163-44c24.6,0,147.4,30,172,30c23,0,138,17,161,17c22.3,0,133.7-218,156-218
	c16.4,0,98.6,1,115,1c22.7,0,136.3,200,159,200l139-104v977H-226.4z"/>
<path class="st3" d="M-226.4,986.3l18-951c23,0,138-141,161-141c24.3,0,145.7,273,170,273c15.7,0,94.3-244,110-244
	c14.9,0,89.1,188,104,188c18.1,0,108.9,64,127,64c19.6,0,117.4-37,137-37c15.6,0,93.4-184,109-184c21.9,0,131.1-21,153-21
	c21.4,0,128.6-41,150-41c17.9,0,107.1,69,125,69c18.6,0,111.4,163,130,163c21.7,0,130.3-177,152-177l125,88v951H-226.4z"/>
<path class="st4" d="M-226.4,986.3l27-926c15.3,0,91.7,109,107,109c16.4,0,98.6-8,115-8c14.7,0,88.3,8,103,8c12.9,0,77.1,6,90,6
	c23.7,0,142.3,10,166,10c17.3,0,103.7-247,121-247c17.7,0,106.3,251,124,251c17.1,0,102.9-217,120-217c14.3,0,85.7-35,100-35
	c23.4,0,140.6,244,164,244c14.4,0,86.6-255,101-255c22.3,0,133.7,40,156,40c17.3,0,103.7-43,121-43l156,137v926H-226.4z"/>
<path class="st5" d="M-226.4,986.3l36-900c15.1,0,90.9,87,106,87c17.4,0,104.6-8,122-8c24.7,0,148.3-1,173-1
	c18.4,0,110.6-209,129-209c19.3,0,115.7,51,135,51c15.1,0,90.9-47,106-47c14.4,0,86.6,220,101,220c18,0,108-187,126-187
	c23.4,0,140.6,213,164,213c22,0,132-193,154-193c18.9,0,113.1-46,132-46c14.1,0,84.9,207,99,207l188-87v900H-226.4z"/>
<path class="st6" d="M-226.4,986.3l45-875c16.9,0,101.1-106,118-106c21.7,0,130.3,6,152,6c20.9,0,125.1,201,146,201
	c19.4,0,116.6,4,136,4c23,0,138-189,161-189c20.1,0,120.9-59,141-59c14.4,0,86.6,247,101,247c15.7,0,94.3,22,110,22
	c19.9,0,119.1-1,139-1c15.3,0,91.7-247,107-247c20.4,0,122.6,47,143,47c24.9,0,149.1-10,174-10l98,85v875H-226.4z"/>
<path class="st7" d="M-226.4,986.3l54-849c16.6,0,99.4-98,116-98c18.9,0,113.1,192,132,192c16.9,0,101.1-190,118-190
	c14.9,0,89.1,219,104,219c14.6,0,87.4-49,102-49c21,0,126-166,147-166c14.3,0,85.7,6,100,6c15.4,0,92.6-2,108-2
	c21.1,0,126.9-42,148-42c20.9,0,125.1,45,146,45c22.7,0,136.3,175,159,175c20.7,0,124.3,8,145,8l192-98v849H-226.4z"/>
<path class="st8" d="M-226.4,986.3l63-824c22.9,0,137.1-75,160-75c21,0,126-31,147-31c25,0,150,225,175,225
	c20.4,0,122.6-224,143-224c22.1,0,132.9,220,155,220c14.1,0,84.9-14,99-14c13,0,78,8,91,8c14,0,84-243,98-243c16,0,96,24,112,24
	c16.7,0,100.3-28,117-28c23.6,0,141.4,2,165,2l246,136v824H-226.4z"/>
<path class="st9" d="M-226.4,986.3l72-798c12.9,0,77.1-82,90-82c16,0,96-50,112-50c24.7,0,148.3,8,173,8c15.4,0,92.6,238,108,238
	c15.6,0,93.4-247,109-247c21.3,0,127.7,19,149,19c24.3,0,145.7,235,170,235c16,0,96-264,112-264c17,0,102,16,119,16
	c13.6,0,81.4,222,95,222c17.1,0,102.9,0,120,0c14.1,0,84.9-3,99-3l243-92v798H-226.4z"/>
<path class="st10" d="M-226.4,986.3l81-773c21.7,0,130.3,72,152,72c14.1,0,84.9-144,99-144c14,0,84-68,98-68
	c23.3,0,139.7,236,163,236c24.9,0,149.1-188,174-188c19.3,0,115.7,16,135,16c18.4,0,110.6-21,129-21c22,0,132,1,154,1
	c15.1,0,90.9,237,106,237c17.4,0,104.6-67,122-67c20.4,0,122.6,67,143,67l215-141v773H-226.4z"/>
<path class="st11" d="M-226.4,986.3l90-747c13.7,0,82.3-109,96-109c20.1,0,120.9,186,141,186c24.3,0,145.7,56,170,56
	c25.1,0,150.9-211,176-211c17.6,0,105.4-11,123-11c13,0,78,199,91,199c22.4,0,134.6-244,157-244c13.9,0,83.1,14,97,14
	c21.6,0,129.4,15,151,15c18.4,0,110.6,207,129,207c13.4,0,80.6-177,94-177l256,75v747H-226.4z"/>
<path class="st12" d="M-226.4,986.3l99-721c18.6,0,111.4-74,130-74c18.4,0,110.6,195,129,195c15,0,90,4,105,4
	c17.9,0,107.1-33,125-33c24,0,144-229,168-229c20.9,0,125.1,1,146,1c17.9,0,107.1,232,125,232c22.7,0,136.3-195,159-195
	c24.9,0,149.1,223,174,223c23.3,0,139.7-243,163-243l248,119v721H-226.4z"/>
<path class="st13" d="M-226.4,986.3l108-696c21.6,0,129.4,122,151,122c12.9,0,77.1-4,90-4c22.9,0,137.1-24,160-24
	c16,0,96-184,112-184c20.9,0,125.1-29,146-29c18.7,0,112.3-6,131-6c24.7,0,148.3,202,173,202c22.4,0,134.6,10,157,10
	c21.4,0,128.6-13,150-13c20.1,0,120.9,54,141,54l252-128v696H-226.4z"/>
<path class="st14" d="M-226.4,986.3l117-670c18,0,108-102,126-102c19.6,0,117.4-2,137-2c23.3,0,139.7,243,163,243
	c20.9,0,125.1-278,146-278c23.3,0,139.7,7,163,7c14.4,0,86.6,53,101,53c17.3,0,103.7-13,121-13c17.6,0,105.4,1,123,1
	c20.1,0,120.9,17,141,17c13.1,0,78.9-51,92-51c17.7,0,106.3-10,124-10l217,135v670H-226.4z"/>
<path class="st15" d="M-226.4,986.3l126-645c24.9,0,149.1-108,174-108c15.7,0,94.3,232,110,232c19.6,0,117.4-266,137-266
	c25,0,150,268,175,268c21.6,0,129.4-18,151-18c14.4,0,86.6,1,101,1c16,0,96-3,112-3c19.7,0,118.3-225,138-225
	c13.4,0,80.6,230,94,230c22.9,0,137.1-188,160-188c24.9,0,149.1-20,174-20l119,97v645H-226.4z"/>
<path class="st16" d="M-226.4,986.3l135-619c17.7,0,106.3-112,124-112c16.9,0,101.1,39,118,39c18.6,0,111.4,204,130,204
	c18.3,0,109.7-234,128-234c25,0,150,188,175,188c12.9,0,77.1,53,90,53c14.7,0,88.3-36,103-36c20,0,120-12,140-12c21,0,126,43,147,43
	c21.4,0,128.6-51,150-51c14.7,0,88.3,39,103,39l228-121v619H-226.4z"/>
<path class="st17" d="M-226.4,986.3l144-594c14.3,0,85.7-129,100-129c14.6,0,87.4-1,102-1c16.4,0,98.6,32,115,32c22,0,132-44,154-44
	c19.6,0,117.4,39,137,39c21.1,0,126.9,195,148,195c19.4,0,116.6-172,136-172c19.6,0,117.4,207,137,207c19.7,0,118.3-10,138-10
	c23.6,0,141.4-190,165-190c22.6,0,135.4-20,158-20l137,93v594H-226.4z"/>
<path class="st18" d="M-226.4,986.3l153-568c13.6,0,81.4-142,95-142c19.3,0,115.7,238,135,238c24,0,144,18,168,18
	c17.9,0,107.1-207,125-207c18.1,0,108.9,198,127,198c14.9,0,89.1,4,104,4c15,0,90-196,105-196c19.9,0,119.1-14,139-14
	c19.1,0,114.9,2,134,2c12.6,0,75.4,207,88,207c24.3,0,145.7-219,170-219l228,111v568H-226.4z"/>
<path class="st19" d="M-226.4,986.3l162-543c23.6,0,141.4-137,165-137c21.7,0,130.3,213,152,213c24.1,0,144.9-178,169-178
	c21.9,0,131.1,204,153,204c23,0,138,33,161,33c19.9,0,119.1-266,139-266c19.6,0,117.4,209,137,209c20.9,0,125.1-188,146-188
	c23.6,0,141.4,243,165,243l222-133v543H-226.4z"/>
<path class="st20" d="M-226.4,986.3l171-517c16.6,0,99.4-76,116-76c21.1,0,126.9-66,148-66c15.4,0,92.6,49,108,49
	c18,0,108,232,126,232c17.1,0,102.9-13,120-13c12.9,0,77.1-18,90-18c19.6,0,117.4,26,137,26c21,0,126-226,147-226
	c15.4,0,92.6,164,108,164c22.9,0,137.1,47,160,47c22.4,0,134.6-218,157-218l183,99v517H-226.4z"/>
<path class="st21" d="M-226.4,986.3l180-491c14.1,0,84.9,132,99,132c22.1,0,132.9-270,155-270c25.1,0,150.9,260,176,260
	c16.7,0,100.3-236,117-236c25,0,150,38,175,38c15.6,0,93.4,149,109,149c21.9,0,131.1,48,153,48c22.4,0,134.6-23,157-23
	c21.4,0,128.6-212,150-212s128.6-4,150-4l150,118v491H-226.4z"/>
<path class="st22" d="M-226.4,986.3l189-466c20.9,0,125.1,85,146,85c18.7,0,112.3-220,131-220c17.1,0,102.9,251,120,251
	c12.7,0,76.3-29,89-29c13.9,0,83.1-6,97-6c14.1,0,84.9-221,99-221c24.1,0,144.9,256,169,256c16.6,0,99.4-259,116-259
	c14.3,0,85.7,6,100,6c14.9,0,89.1,25,104,25c19.9,0,119.1,185,139,185c19.6,0,117.4,0,137,0l135-73v466H-226.4z"/>
<path class="st23" d="M-226.4,986.3l198-440c23.7,0,142.3,122,166,122c22,0,132-25,154-25c14.1,0,84.9-10,99-10
	c22.7,0,136.3-187,159-187c22.1,0,132.9,10,155,10c17.6,0,105.4-34,123-34c18.6,0,111.4,5,130,5c22.3,0,133.7,247,156,247
	c15,0,90-225,105-225c17.6,0,105.4,177,123,177l203-80v440H-226.4z"/>
<path class="st24" d="M-226.4,986.3l207-415c14.7,0,88.3-112,103-112c17.3,0,103.7,249,121,249s103.7-239,121-239
	c13.4,0,80.6-41,94-41c24.3,0,145.7,230,170,230c14.7,0,88.3,23,103,23c19.1,0,114.9-241,134-241c14,0,84,232,98,232
	c24.9,0,149.1,10,174,10c19.7,0,118.3,23,138,23c23.3,0,139.7-237,163-237l145,103v415H-226.4z"/>
<path class="st25" d="M-226.4,986.3l216-389c13.9,0,83.1,136,97,136c20.9,0,125.1-61,146-61c20.4,0,122.6,17,143,17
	c13.7,0,82.3,50,96,50c16.7,0,100.3-261,117-261c22.6,0,135.4,2,158,2c24.6,0,147.4-21,172-21c15.7,0,94.3,223,110,223
	c20,0,120,14,140,14c15.7,0,94.3-230,110-230c24.4,0,146.6-4,171-4l95,135v389H-226.4z"/>
<path class="st26" d="M-226.4,986.3l225-364c18.6,0,111.4,95,130,95c13.9,0,83.1-222,97-222c18.3,0,109.7,225,128,225
	c14.9,0,89.1,28,104,28c18.6,0,111.4-34,130-34c20.6,0,123.4-219,144-219c13.1,0,78.9,244,92,244c14.9,0,89.1,19,104,19
	c19.6,0,117.4-18,137-18c21.7,0,130.3-37,152-37c20.3,0,121.7,27,142,27l186-108v364H-226.4z"/>
<path class="st27" d="M-226.4,986.3l234-338c15,0,90,129,105,129c23.1,0,138.9-37,162-37c19.3,0,115.7-17,135-17
	c24.6,0,147.4-161,172-161c23.9,0,143.1,178,167,178c16.3,0,97.7-5,114-5c22.7,0,136.3-229,159-229c20,0,120,1,140,1
	c25.1,0,150.9,250,176,250l207-109v338H-226.4z"/>
<path class="st28" d="M-226.4,986.3l243-313c13.9,0,83.1-128,97-128c22.4,0,134.6,15,157,15c20.7,0,124.3,220,145,220
	c17.3,0,103.7,2,121,2c20.3,0,121.7-199,142-199c20.1,0,120.9,226,141,226c19.9,0,119.1-279,139-279c21.6,0,129.4,236,151,236
	c16.6,0,99.4-9,116-9c19,0,114,40,133,40l186-124v313H-226.4z"/>
<path class="st29" d="M-226.4,986.3l252-287c17.9,0,107.1,77,125,77c23.6,0,141.4-207,165-207c19.7,0,118.3-4,138-4
	c19.1,0,114.9,250,134,250c22.9,0,137.1-212,160-212c14.1,0,84.9,217,99,217c24.1,0,144.9-227,169-227c15.1,0,90.9,234,106,234
	c22.3,0,133.7-56,156-56c17.1,0,102.9,68,120,68l147-140v287H-226.4z"/>
<path class="st30" d="M-226.4,986.3l261-261c17.3,0,103.7-80,121-80c18.3,0,109.7-44,128-44c25,0,150,41,175,41
	c20.9,0,125.1,162,146,162c15.9,0,95.1,30,111,30c23.7,0,142.3,32,166,32c17.9,0,107.1-66,125-66c12.9,0,77.1,18,90,18
	c15.1,0,90.9-172,106-172c15,0,90,193,105,193l237-114v261H-226.4z"/>
<path class="st0" d="z"/>
</svg>
