<?xml version="1.0" standalone="no"?>
<!DOCTYPE svg PUBLIC "-//W3C//DTD SVG 20010904//EN"
 "http://www.w3.org/TR/2001/REC-SVG-20010904/DTD/svg10.dtd">
<svg version="1.0" xmlns="http://www.w3.org/2000/svg"
 width="700.000000pt" height="700.000000pt" viewBox="0 0 700.000000 700.000000"
 preserveAspectRatio="xMidYMid meet">
<metadata>
Created by potrace 1.11, written by Peter Selinger 2001-2013
</metadata>
<g transform="translate(0.000000,700.000000) scale(0.100000,-0.100000)"
fill="#000000" stroke="none">
<path d="M599 6983 c0 -10 -1 -1425 -1 -3145 l-1 -3128 -298 0 -299 0 0 -218
0 -218 291 0 c160 1 295 -1 299 -4 4 -3 8 -57 8 -120 0 -63 0 -123 1 -132 1
-17 18 -18 219 -18 l217 0 0 128 c-1 70 0 132 2 137 2 7 1005 10 2983 10
l2980 -1 0 218 0 218 -852 0 -853 1 90 43 c50 23 108 51 130 61 140 66 389
219 499 308 159 128 302 307 355 447 37 94 45 142 44 255 -1 202 -86 372 -282
565 -113 111 -205 182 -361 276 -52 31 -105 63 -118 71 l-23 14 34 24 c92 62
255 224 322 320 203 292 236 664 85 966 -22 44 -58 107 -81 142 -56 82 -236
260 -327 322 -40 27 -69 52 -65 56 5 4 53 33 108 64 461 263 694 547 709 862
21 426 -343 800 -1094 1124 l-134 58 -82 -202 -81 -202 32 -15 c18 -8 54 -24
81 -35 83 -33 284 -134 379 -190 212 -125 371 -267 426 -382 27 -57 31 -74 27
-127 -3 -36 -14 -82 -28 -111 -27 -57 -154 -189 -243 -254 -111 -81 -345 -214
-464 -265 l-57 -24 -30 32 c-115 119 -299 214 -539 280 -70 19 -146 38 -169
41 -23 4 -45 8 -48 10 -3 2 -32 6 -64 10 -33 3 -62 8 -65 9 -3 2 -55 8 -116
12 -189 15 -544 9 -695 -10 -14 -2 -50 -7 -80 -10 -103 -14 -293 -57 -397 -91
-199 -65 -346 -147 -453 -251 l-55 -53 -115 57 c-282 142 -456 265 -559 397
-63 80 -85 133 -85 204 0 87 39 156 149 267 146 148 404 303 735 443 75 32
114 53 112 62 -3 16 -144 382 -148 388 -9 10 -254 -95 -430 -185 -113 -58
-232 -125 -285 -163 -20 -14 -47 -33 -59 -41 -283 -190 -475 -447 -506 -677
-50 -369 200 -715 728 -1007 66 -37 90 -56 69 -56 -16 0 -181 -141 -243 -208
-156 -169 -254 -362 -289 -566 -16 -93 -6 -271 20 -371 58 -220 217 -447 431
-616 92 -72 92 -65 -10 -120 -62 -33 -66 -35 -168 -102 -399 -263 -591 -582
-540 -902 40 -259 237 -502 583 -722 109 -69 341 -194 408 -219 12 -5 -247
-10 -593 -11 -338 -2 -620 -1 -625 1 -7 2 -10 1059 -10 3145 l0 3141 -217 0
c-201 0 -218 -1 -219 -17z m3411 -2138 c69 -3 139 -8 155 -10 17 -3 44 -7 60
-10 17 -2 48 -7 70 -11 239 -36 545 -159 545 -220 0 -19 -56 -62 -130 -99
-125 -63 -337 -122 -505 -140 -33 -4 -87 -10 -120 -15 -71 -9 -474 -6 -560 4
-316 38 -636 142 -703 228 -11 14 -8 21 20 47 93 87 352 175 608 207 25 3 58
8 75 10 16 2 98 7 180 10 83 4 152 8 153 10 2 1 9 1 15 -1 7 -2 68 -6 137 -10z
m1233 -561 c153 -77 313 -211 386 -324 83 -128 107 -244 76 -372 -56 -230
-204 -416 -423 -532 l-53 -28 -57 53 c-113 103 -251 176 -459 243 -79 25 -193
52 -258 62 -16 3 -40 7 -53 10 -100 22 -319 38 -517 38 -158 0 -380 -10 -408
-19 -7 -2 -37 -6 -67 -10 -102 -11 -304 -57 -425 -96 -205 -67 -358 -153 -462
-258 l-59 -60 -74 40 c-126 69 -233 167 -308 284 -57 89 -112 248 -112 325 0
84 71 270 140 364 79 107 215 219 324 266 l48 20 46 -45 c125 -123 358 -232
627 -291 61 -14 175 -36 210 -40 22 -3 51 -7 65 -10 14 -2 59 -6 100 -9 41 -3
93 -8 115 -11 134 -15 433 -1 665 32 367 52 705 194 841 353 19 22 35 40 37
40 1 1 26 -11 55 -25z m-1093 -1298 c30 -3 75 -9 100 -12 168 -21 331 -69 485
-144 137 -66 141 -70 126 -107 -29 -72 -298 -176 -541 -209 -25 -3 -53 -8 -64
-10 -139 -26 -612 -26 -776 0 -29 5 -116 17 -127 18 -5 0 -17 4 -29 8 -11 5
-36 11 -55 14 -123 20 -348 110 -405 162 l-26 25 27 29 c83 87 384 187 645
215 184 20 517 26 640 11z m1208 -592 c328 -173 499 -311 582 -474 104 -203
-113 -455 -605 -703 -131 -66 -342 -157 -362 -157 -7 0 -13 -1 -13 -3 0 -8 34
-103 40 -112 3 -5 22 -50 40 -100 18 -49 37 -94 42 -99 31 -36 45 -36 -1272
-36 -728 0 -1280 4 -1280 9 0 8 19 56 45 116 49 109 74 179 68 185 -4 3 -39
19 -78 35 -128 52 -379 181 -485 250 -326 211 -434 389 -346 569 70 143 305
325 619 481 l168 84 28 -27 c78 -75 107 -95 227 -158 151 -79 410 -153 629
-180 22 -3 49 -7 60 -9 130 -26 616 -26 805 1 334 47 583 123 765 232 69 42
69 42 138 105 29 26 58 47 65 47 8 0 62 -25 120 -56z"/>
</g>
</svg>
